<?xml version="1.0" encoding="UTF-8" standalone="no"?><svg xmlns="http://www.w3.org/2000/svg" xmlns:xlink="http://www.w3.org/1999/xlink" contentScriptType="application/ecmascript" contentStyleType="text/css" height="482px" preserveAspectRatio="none" style="width:753px;height:482px;" version="1.1" viewBox="0 0 753 482" width="753px" zoomAndPan="magnify"><defs><filter height="300%" id="fl30d4qa4pitq" width="300%" x="-1" y="-1"><feGaussianBlur result="blurOut" stdDeviation="2.0"/><feColorMatrix in="blurOut" result="blurOut2" type="matrix" values="0 0 0 0 0 0 0 0 0 0 0 0 0 0 0 0 0 0 .4 0"/><feOffset dx="4.0" dy="4.0" in="blurOut2" result="blurOut3"/><feBlend in="SourceGraphic" in2="blurOut3" mode="normal"/></filter></defs><g><!--MD5=[d40932010816485ec57b44b6eea2392a]
class Observer--><a href="java:observer.pattern.Observer" target="_top" title="java:observer.pattern.Observer" xlink:actuate="onRequest" xlink:href="java:observer.pattern.Observer" xlink:show="new" xlink:title="java:observer.pattern.Observer" xlink:type="simple"><rect fill="#FEFECE" filter="url(#fl30d4qa4pitq)" height="60.9551" id="Observer" style="stroke: #A80036; stroke-width: 1.5;" width="154" x="162" y="8"/><ellipse cx="208.25" cy="24" fill="#B4A7E5" rx="11" ry="11" style="stroke: #A80036; stroke-width: 1.0;"/><path d="M204.6777,20.2651 L204.6777,18.1069 L212.0571,18.1069 L212.0571,20.2651 L209.5918,20.2651 L209.5918,28.3418 L212.0571,28.3418 L212.0571,30.5 L204.6777,30.5 L204.6777,28.3418 L207.1431,28.3418 L207.1431,20.2651 Z "/><text fill="#000000" font-family="sans-serif" font-size="12" font-style="italic" lengthAdjust="spacingAndGlyphs" textLength="53" x="228.75" y="28.5352">Observer</text><line style="stroke: #A80036; stroke-width: 1.5;" x1="163" x2="315" y1="40" y2="40"/><line style="stroke: #A80036; stroke-width: 1.5;" x1="163" x2="315" y1="48" y2="48"/><text fill="#000000" font-family="sans-serif" font-size="11" lengthAdjust="spacingAndGlyphs" textLength="142" x="168" y="62.6348">void update(Observable o)</text></a><!--MD5=[335017895ae63a261adc2da81a717e77]
class BarChartObserver--><a href="java:observer.pattern.BarChartObserver" target="_top" title="java:observer.pattern.BarChartObserver" xlink:actuate="onRequest" xlink:href="java:observer.pattern.BarChartObserver" xlink:show="new" xlink:title="java:observer.pattern.BarChartObserver" xlink:type="simple"><rect fill="#FEFECE" filter="url(#fl30d4qa4pitq)" height="99.8203" id="BarChartObserver" style="stroke: #A80036; stroke-width: 1.5;" width="220" x="6" y="156"/><ellipse cx="60.25" cy="172" fill="#ADD1B2" rx="11" ry="11" style="stroke: #A80036; stroke-width: 1.0;"/><path d="M62.7231,178.1431 Q62.1421,178.4419 61.5029,178.5913 Q60.8638,178.7407 60.1582,178.7407 Q57.6514,178.7407 56.3315,177.0889 Q55.0117,175.437 55.0117,172.3159 Q55.0117,169.1865 56.3315,167.5347 Q57.6514,165.8828 60.1582,165.8828 Q60.8638,165.8828 61.5112,166.0322 Q62.1587,166.1816 62.7231,166.4805 L62.7231,169.2031 Q62.0923,168.6221 61.4988,168.3523 Q60.9053,168.0825 60.2744,168.0825 Q58.9297,168.0825 58.2449,169.1492 Q57.5601,170.2158 57.5601,172.3159 Q57.5601,174.4077 58.2449,175.4744 Q58.9297,176.541 60.2744,176.541 Q60.9053,176.541 61.4988,176.2712 Q62.0923,176.0015 62.7231,175.4204 Z "/><text fill="#000000" font-family="sans-serif" font-size="12" lengthAdjust="spacingAndGlyphs" textLength="103" x="80.75" y="176.5352">BarChartObserver</text><line style="stroke: #A80036; stroke-width: 1.5;" x1="7" x2="225" y1="188" y2="188"/><rect fill="none" height="6" style="stroke: #C82930; stroke-width: 1.0;" width="6" x="14" y="196"/><text fill="#000000" font-family="sans-serif" font-size="11" lengthAdjust="spacingAndGlyphs" textLength="194" x="26" y="202.6348">Vector&lt;CourseRecord&gt; courseData</text><line style="stroke: #A80036; stroke-width: 1.5;" x1="7" x2="225" y1="208.9551" y2="208.9551"/><ellipse cx="17" cy="219.9551" fill="#84BE84" rx="3" ry="3" style="stroke: #038048; stroke-width: 1.0;"/><text fill="#000000" font-family="sans-serif" font-size="11" lengthAdjust="spacingAndGlyphs" textLength="194" x="26" y="223.5898">BarChartObserver(CourseData data)</text><ellipse cx="17" cy="232.9102" fill="#84BE84" rx="3" ry="3" style="stroke: #038048; stroke-width: 1.0;"/><text fill="#000000" font-family="sans-serif" font-size="11" lengthAdjust="spacingAndGlyphs" textLength="119" x="26" y="236.5449">void paint(Graphics g)</text><ellipse cx="17" cy="245.8652" fill="#84BE84" rx="3" ry="3" style="stroke: #038048; stroke-width: 1.0;"/><text fill="#000000" font-family="sans-serif" font-size="11" lengthAdjust="spacingAndGlyphs" textLength="142" x="26" y="249.5">void update(Observable o)</text></a><!--MD5=[36afe292eb27441132c327893668631d]
class JPanel--><a href="java:javax.swing.JPanel" target="_top" title="java:javax.swing.JPanel" xlink:actuate="onRequest" xlink:href="java:javax.swing.JPanel" xlink:show="new" xlink:title="java:javax.swing.JPanel" xlink:type="simple"><rect fill="#FEFECE" filter="url(#fl30d4qa4pitq)" height="48" id="JPanel" style="stroke: #A80036; stroke-width: 1.5;" width="67" x="59.5" y="14.5"/><ellipse cx="74.5" cy="30.5" fill="#ADD1B2" rx="11" ry="11" style="stroke: #A80036; stroke-width: 1.0;"/><path d="M76.9731,36.6431 Q76.3921,36.9419 75.7529,37.0913 Q75.1138,37.2407 74.4082,37.2407 Q71.9014,37.2407 70.5815,35.5889 Q69.2617,33.937 69.2617,30.8159 Q69.2617,27.6865 70.5815,26.0347 Q71.9014,24.3828 74.4082,24.3828 Q75.1138,24.3828 75.7612,24.5322 Q76.4087,24.6816 76.9731,24.9805 L76.9731,27.7031 Q76.3423,27.1221 75.7488,26.8523 Q75.1553,26.5825 74.5244,26.5825 Q73.1797,26.5825 72.4949,27.6492 Q71.8101,28.7158 71.8101,30.8159 Q71.8101,32.9077 72.4949,33.9744 Q73.1797,35.041 74.5244,35.041 Q75.1553,35.041 75.7488,34.7712 Q76.3423,34.5015 76.9731,33.9204 Z "/><text fill="#000000" font-family="sans-serif" font-size="12" lengthAdjust="spacingAndGlyphs" textLength="35" x="88.5" y="35.0352">JPanel</text><line style="stroke: #A80036; stroke-width: 1.5;" x1="60.5" x2="125.5" y1="46.5" y2="46.5"/><line style="stroke: #A80036; stroke-width: 1.5;" x1="60.5" x2="125.5" y1="54.5" y2="54.5"/></a><!--MD5=[7a429f52654fdc9202befee971fc9994]
class CourseController--><a href="java:observer.pattern.CourseController" target="_top" title="java:observer.pattern.CourseController" xlink:actuate="onRequest" xlink:href="java:observer.pattern.CourseController" xlink:show="new" xlink:title="java:observer.pattern.CourseController" xlink:type="simple"><rect fill="#FEFECE" filter="url(#fl30d4qa4pitq)" height="151.6406" id="CourseController" style="stroke: #A80036; stroke-width: 1.5;" width="241" x="279.5" y="130"/><ellipse cx="347.75" cy="146" fill="#ADD1B2" rx="11" ry="11" style="stroke: #A80036; stroke-width: 1.0;"/><path d="M350.2231,152.1431 Q349.6421,152.4419 349.0029,152.5913 Q348.3638,152.7407 347.6582,152.7407 Q345.1514,152.7407 343.8315,151.0889 Q342.5117,149.437 342.5117,146.3159 Q342.5117,143.1865 343.8315,141.5347 Q345.1514,139.8828 347.6582,139.8828 Q348.3638,139.8828 349.0112,140.0322 Q349.6587,140.1816 350.2231,140.4805 L350.2231,143.2031 Q349.5923,142.6221 348.9988,142.3523 Q348.4053,142.0825 347.7744,142.0825 Q346.4297,142.0825 345.7449,143.1492 Q345.0601,144.2158 345.0601,146.3159 Q345.0601,148.4077 345.7449,149.4744 Q346.4297,150.541 347.7744,150.541 Q348.4053,150.541 348.9988,150.2712 Q349.5923,150.0015 350.2231,149.4204 Z "/><text fill="#000000" font-family="sans-serif" font-size="12" lengthAdjust="spacingAndGlyphs" textLength="96" x="368.25" y="150.5352">CourseController</text><line style="stroke: #A80036; stroke-width: 1.5;" x1="280.5" x2="519.5" y1="162" y2="162"/><rect fill="none" height="6" style="stroke: #C82930; stroke-width: 1.0;" width="6" x="287.5" y="170"/><text fill="#000000" font-family="sans-serif" font-size="11" lengthAdjust="spacingAndGlyphs" textLength="125" x="299.5" y="176.6348">Vector&lt;JSlider&gt; sliders</text><rect fill="none" height="6" style="stroke: #C82930; stroke-width: 1.0;" width="6" x="287.5" y="182.9551"/><text fill="#000000" font-family="sans-serif" font-size="11" lengthAdjust="spacingAndGlyphs" textLength="99" x="299.5" y="189.5898">JPanel coursePanel</text><line style="stroke: #A80036; stroke-width: 1.5;" x1="280.5" x2="519.5" y1="195.9102" y2="195.9102"/><ellipse cx="290.5" cy="206.9102" fill="#84BE84" rx="3" ry="3" style="stroke: #038048; stroke-width: 1.0;"/><text fill="#000000" font-family="sans-serif" font-size="11" lengthAdjust="spacingAndGlyphs" textLength="211" x="299.5" y="210.5449">CourseController(CourseData courses)</text><ellipse cx="290.5" cy="219.8652" fill="#84BE84" rx="3" ry="3" style="stroke: #038048; stroke-width: 1.0;"/><text fill="#000000" font-family="sans-serif" font-size="11" lengthAdjust="spacingAndGlyphs" textLength="209" x="299.5" y="223.5">void addCourse(CourseRecord record)</text><ellipse cx="290.5" cy="232.8203" fill="#84BE84" rx="3" ry="3" style="stroke: #038048; stroke-width: 1.0;"/><text fill="#000000" font-family="sans-serif" font-size="11" lengthAdjust="spacingAndGlyphs" textLength="142" x="299.5" y="236.4551">void update(Observable o)</text><ellipse cx="290.5" cy="245.7754" fill="#84BE84" rx="3" ry="3" style="stroke: #038048; stroke-width: 1.0;"/><text fill="#000000" font-family="sans-serif" font-size="11" lengthAdjust="spacingAndGlyphs" textLength="215" x="299.5" y="249.4102">void actionPerformed(ActionEvent arg0)</text><ellipse cx="290.5" cy="258.7305" fill="#84BE84" rx="3" ry="3" style="stroke: #038048; stroke-width: 1.0;"/><text fill="#000000" font-family="sans-serif" font-size="11" lengthAdjust="spacingAndGlyphs" textLength="206" x="299.5" y="262.3652">void stateChanged(ChangeEvent arg0)</text><ellipse cx="290.5" cy="271.6855" fill="#84BE84" rx="3" ry="3" style="stroke: #038048; stroke-width: 1.0;"/><text fill="#000000" font-family="sans-serif" font-size="11" lengthAdjust="spacingAndGlyphs" text-decoration="underline" textLength="127" x="299.5" y="275.3203">void main(String[] args)</text></a><!--MD5=[c24ba912c7b50599aaf1eae222d375f0]
class CourseData--><a href="java:observer.pattern.CourseData" target="_top" title="java:observer.pattern.CourseData" xlink:actuate="onRequest" xlink:href="java:observer.pattern.CourseData" xlink:show="new" xlink:title="java:observer.pattern.CourseData" xlink:type="simple"><rect fill="#FEFECE" filter="url(#fl30d4qa4pitq)" height="112.7754" id="CourseData" style="stroke: #A80036; stroke-width: 1.5;" width="387" x="331.5" y="359"/><ellipse cx="487.25" cy="375" fill="#ADD1B2" rx="11" ry="11" style="stroke: #A80036; stroke-width: 1.0;"/><path d="M489.7231,381.1431 Q489.1421,381.4419 488.5029,381.5913 Q487.8638,381.7407 487.1582,381.7407 Q484.6514,381.7407 483.3315,380.0889 Q482.0117,378.437 482.0117,375.3159 Q482.0117,372.1865 483.3315,370.5347 Q484.6514,368.8828 487.1582,368.8828 Q487.8638,368.8828 488.5112,369.0322 Q489.1587,369.1816 489.7231,369.4805 L489.7231,372.2031 Q489.0923,371.6221 488.4988,371.3523 Q487.9053,371.0825 487.2744,371.0825 Q485.9297,371.0825 485.2449,372.1492 Q484.5601,373.2158 484.5601,375.3159 Q484.5601,377.4077 485.2449,378.4744 Q485.9297,379.541 487.2744,379.541 Q487.9053,379.541 488.4988,379.2712 Q489.0923,379.0015 489.7231,378.4204 Z "/><text fill="#000000" font-family="sans-serif" font-size="12" lengthAdjust="spacingAndGlyphs" textLength="67" x="507.75" y="379.5352">CourseData</text><line style="stroke: #A80036; stroke-width: 1.5;" x1="332.5" x2="717.5" y1="391" y2="391"/><rect fill="none" height="6" style="stroke: #C82930; stroke-width: 1.0;" width="6" x="339.5" y="399"/><text fill="#000000" font-family="sans-serif" font-size="11" lengthAdjust="spacingAndGlyphs" textLength="194" x="351.5" y="405.6348">Vector&lt;CourseRecord&gt; courseData</text><line style="stroke: #A80036; stroke-width: 1.5;" x1="332.5" x2="717.5" y1="411.9551" y2="411.9551"/><ellipse cx="342.5" cy="422.9551" fill="#84BE84" rx="3" ry="3" style="stroke: #038048; stroke-width: 1.0;"/><text fill="#000000" font-family="sans-serif" font-size="11" lengthAdjust="spacingAndGlyphs" textLength="71" x="351.5" y="426.5898">CourseData()</text><ellipse cx="342.5" cy="435.9102" fill="#84BE84" rx="3" ry="3" style="stroke: #038048; stroke-width: 1.0;"/><text fill="#000000" font-family="sans-serif" font-size="11" lengthAdjust="spacingAndGlyphs" textLength="286" x="351.5" y="439.5449">void addCourseRecord(CourseRecord courseRecord)</text><ellipse cx="342.5" cy="448.8652" fill="#84BE84" rx="3" ry="3" style="stroke: #038048; stroke-width: 1.0;"/><text fill="#000000" font-family="sans-serif" font-size="11" lengthAdjust="spacingAndGlyphs" textLength="361" x="351.5" y="452.5">void changeCourseRecord(String subjectName, int numOfStudents)</text><ellipse cx="342.5" cy="461.8203" fill="#84BE84" rx="3" ry="3" style="stroke: #038048; stroke-width: 1.0;"/><text fill="#000000" font-family="sans-serif" font-size="11" lengthAdjust="spacingAndGlyphs" textLength="196" x="351.5" y="465.4551">Vector&lt;CourseRecord&gt; getUpdate()</text></a><!--MD5=[a94ef3b8c8e4fd23532822afff4ed5f3]
class ChangeListener--><a href="java:javax.swing.event.ChangeListener" target="_top" title="java:javax.swing.event.ChangeListener" xlink:actuate="onRequest" xlink:href="java:javax.swing.event.ChangeListener" xlink:show="new" xlink:title="java:javax.swing.event.ChangeListener" xlink:type="simple"><rect fill="#FEFECE" filter="url(#fl30d4qa4pitq)" height="48" id="ChangeListener" style="stroke: #A80036; stroke-width: 1.5;" width="120" x="498" y="14.5"/><ellipse cx="513" cy="30.5" fill="#B4A7E5" rx="11" ry="11" style="stroke: #A80036; stroke-width: 1.0;"/><path d="M509.4277,26.7651 L509.4277,24.6069 L516.8071,24.6069 L516.8071,26.7651 L514.3418,26.7651 L514.3418,34.8418 L516.8071,34.8418 L516.8071,37 L509.4277,37 L509.4277,34.8418 L511.8931,34.8418 L511.8931,26.7651 Z "/><text fill="#000000" font-family="sans-serif" font-size="12" font-style="italic" lengthAdjust="spacingAndGlyphs" textLength="88" x="527" y="35.0352">ChangeListener</text><line style="stroke: #A80036; stroke-width: 1.5;" x1="499" x2="617" y1="46.5" y2="46.5"/><line style="stroke: #A80036; stroke-width: 1.5;" x1="499" x2="617" y1="54.5" y2="54.5"/></a><!--MD5=[04935357b5c5a2aec56a7c93da5b843d]
class ActionListener--><a href="java:java.awt.event.ActionListener" target="_top" title="java:java.awt.event.ActionListener" xlink:actuate="onRequest" xlink:href="java:java.awt.event.ActionListener" xlink:show="new" xlink:title="java:java.awt.event.ActionListener" xlink:type="simple"><rect fill="#FEFECE" filter="url(#fl30d4qa4pitq)" height="48" id="ActionListener" style="stroke: #A80036; stroke-width: 1.5;" width="112" x="351" y="14.5"/><ellipse cx="366" cy="30.5" fill="#B4A7E5" rx="11" ry="11" style="stroke: #A80036; stroke-width: 1.0;"/><path d="M362.4277,26.7651 L362.4277,24.6069 L369.8071,24.6069 L369.8071,26.7651 L367.3418,26.7651 L367.3418,34.8418 L369.8071,34.8418 L369.8071,37 L362.4277,37 L362.4277,34.8418 L364.8931,34.8418 L364.8931,26.7651 Z "/><text fill="#000000" font-family="sans-serif" font-size="12" font-style="italic" lengthAdjust="spacingAndGlyphs" textLength="80" x="380" y="35.0352">ActionListener</text><line style="stroke: #A80036; stroke-width: 1.5;" x1="352" x2="462" y1="46.5" y2="46.5"/><line style="stroke: #A80036; stroke-width: 1.5;" x1="352" x2="462" y1="54.5" y2="54.5"/></a><!--MD5=[c0bd9f44073f1a51428d87d6a9cf071b]
class Observable--><a href="java:observer.pattern.Observable" target="_top" title="java:observer.pattern.Observable" xlink:actuate="onRequest" xlink:href="java:observer.pattern.Observable" xlink:show="new" xlink:title="java:observer.pattern.Observable" xlink:type="simple"><rect fill="#FEFECE" filter="url(#fl30d4qa4pitq)" height="125.7305" id="Observable" style="stroke: #A80036; stroke-width: 1.5;" width="186" x="556" y="143"/><ellipse cx="611.75" cy="159" fill="#A9DCDF" rx="11" ry="11" style="stroke: #A80036; stroke-width: 1.0;"/><path d="M611.6133,154.3481 L610.4595,159.4199 L612.7754,159.4199 Z M610.1191,152.1069 L613.1157,152.1069 L616.4609,164.5 L614.0122,164.5 L613.2485,161.437 L609.9697,161.437 L609.2227,164.5 L606.7739,164.5 Z "/><text fill="#000000" font-family="sans-serif" font-size="12" font-style="italic" lengthAdjust="spacingAndGlyphs" textLength="66" x="632.25" y="163.5352">Observable</text><line style="stroke: #A80036; stroke-width: 1.5;" x1="557" x2="741" y1="175" y2="175"/><polygon fill="none" points="567,181,571,185,567,189,563,185" style="stroke: #B38D22; stroke-width: 1.0;"/><text fill="#000000" font-family="sans-serif" font-size="11" lengthAdjust="spacingAndGlyphs" textLength="160" x="576" y="189.6348">Vector&lt;Observer&gt; observers</text><line style="stroke: #A80036; stroke-width: 1.5;" x1="557" x2="741" y1="195.9551" y2="195.9551"/><ellipse cx="567" cy="206.9551" fill="#84BE84" rx="3" ry="3" style="stroke: #038048; stroke-width: 1.0;"/><text fill="#000000" font-family="sans-serif" font-size="11" lengthAdjust="spacingAndGlyphs" textLength="69" x="576" y="210.5898">Observable()</text><ellipse cx="567" cy="219.9102" fill="#84BE84" rx="3" ry="3" style="stroke: #038048; stroke-width: 1.0;"/><text fill="#000000" font-family="sans-serif" font-size="11" lengthAdjust="spacingAndGlyphs" textLength="127" x="576" y="223.5449">void attach(Observer o)</text><ellipse cx="567" cy="232.8652" fill="#84BE84" rx="3" ry="3" style="stroke: #038048; stroke-width: 1.0;"/><text fill="#000000" font-family="sans-serif" font-size="11" lengthAdjust="spacingAndGlyphs" textLength="130" x="576" y="236.5">void detach(Observer o)</text><ellipse cx="567" cy="245.8203" fill="#84BE84" rx="3" ry="3" style="stroke: #038048; stroke-width: 1.0;"/><text fill="#000000" font-family="sans-serif" font-size="11" lengthAdjust="spacingAndGlyphs" textLength="121" x="576" y="249.4551">void notifyObservers()</text><ellipse cx="567" cy="258.7754" fill="#84BE84" rx="3" ry="3" style="stroke: #038048; stroke-width: 1.0;"/><text fill="#000000" font-family="sans-serif" font-size="11" font-style="italic" lengthAdjust="spacingAndGlyphs" textLength="101" x="576" y="262.4102">Object getUpdate()</text></a><!--MD5=[6e6a9607756e23472852c994c8cb63ca]
reverse link JPanel to BarChartObserver--><path d="M98.98,82.5 C102.09,104.9 105.91,132.4 109.14,155.67 " fill="none" id="JPanel&lt;-BarChartObserver" style="stroke: #A80036; stroke-width: 1.0;"/><polygon fill="none" points="92.02,83.29,96.2,62.51,105.88,81.36,92.02,83.29" style="stroke: #A80036; stroke-width: 1.0;"/><!--MD5=[d5663302545624b46f044c22b889386c]
reverse link Observer to BarChartObserver--><path d="M205.01,85.24 C188.7,107.18 169.13,133.51 152.51,155.88 " fill="none" id="Observer&lt;-BarChartObserver" style="stroke: #A80036; stroke-width: 1.0; stroke-dasharray: 7.0,7.0;"/><polygon fill="none" points="199.46,80.96,217.01,69.09,210.7,89.32,199.46,80.96" style="stroke: #A80036; stroke-width: 1.0;"/><!--MD5=[883a18aa4a44361dbb1e5bdd9475df89]
link CourseController to CourseData--><path d="M445.3,282.21 C459.58,305.91 475.16,331.77 488.73,354.29 " fill="none" id="CourseController-&gt;CourseData" style="stroke: #A80036; stroke-width: 1.0;"/><polygon fill="#A80036" points="491.41,358.74,490.2095,348.9646,488.8375,354.4525,483.3496,353.0805,491.41,358.74" style="stroke: #A80036; stroke-width: 1.0;"/><text fill="#000000" font-family="sans-serif" font-size="13" lengthAdjust="spacingAndGlyphs" textLength="71" x="470" y="325.5684">courseData</text><text fill="#000000" font-family="sans-serif" font-size="13" lengthAdjust="spacingAndGlyphs" textLength="8" x="478.5938" y="348.1093">1</text><!--MD5=[9b5d49e7de9448316a3a148124b135af]
reverse link JPanel to CourseController--><path d="M144.23,68.97 C197.33,98.4 240.65,121.59 279.38,142.06 " fill="none" id="JPanel&lt;-CourseController" style="stroke: #A80036; stroke-width: 1.0;"/><polygon fill="none" points="140.72,75.03,126.65,59.19,147.53,62.79,140.72,75.03" style="stroke: #A80036; stroke-width: 1.0;"/><!--MD5=[19e87d18ee8b35cf2f4019def90c617d]
reverse link Observer to CourseController--><path d="M281.94,83.64 C295.77,97.86 311.51,114.03 326.88,129.84 " fill="none" id="Observer&lt;-CourseController" style="stroke: #A80036; stroke-width: 1.0; stroke-dasharray: 7.0,7.0;"/><polygon fill="none" points="276.71,88.3,267.78,69.09,286.75,78.54,276.71,88.3" style="stroke: #A80036; stroke-width: 1.0;"/><!--MD5=[76368ddce1b42efbfc12a83b227affab]
reverse link ChangeListener to CourseController--><path d="M522.19,77.01 C507.22,92.69 489.27,111.49 471.79,129.8 " fill="none" id="ChangeListener&lt;-CourseController" style="stroke: #A80036; stroke-width: 1.0; stroke-dasharray: 7.0,7.0;"/><polygon fill="none" points="517.16,72.14,536.03,62.51,527.28,81.81,517.16,72.14" style="stroke: #A80036; stroke-width: 1.0;"/><!--MD5=[8d1d26efbaf4cf9bcbfb8fb22d302377]
reverse link ActionListener to CourseController--><path d="M405.18,82.52 C404.57,96.99 403.87,113.59 403.18,129.8 " fill="none" id="ActionListener&lt;-CourseController" style="stroke: #A80036; stroke-width: 1.0; stroke-dasharray: 7.0,7.0;"/><polygon fill="none" points="398.19,82.2,406.03,62.51,412.18,82.79,398.19,82.2" style="stroke: #A80036; stroke-width: 1.0;"/><!--MD5=[26870fba33b70a7caec39fbd747d7223]
reverse link Observable to CourseData--><path d="M601.51,286.47 C587.05,310.67 571.47,336.73 558.17,358.99 " fill="none" id="Observable&lt;-CourseData" style="stroke: #A80036; stroke-width: 1.0;"/><polygon fill="none" points="595.53,282.83,611.8,269.26,607.55,290.02,595.53,282.83" style="stroke: #A80036; stroke-width: 1.0;"/><!--MD5=[0a16fa0350ca3bc93fe1cb257d607ad4]
@startuml
interface Observer [[java:observer.pattern.Observer]] {
	void update(Observable o)
}
class BarChartObserver [[java:observer.pattern.BarChartObserver]] {
	-Vector<CourseRecord> courseData
	+BarChartObserver(CourseData data)
	+void paint(Graphics g)
	+void update(Observable o)
}
class JPanel [[java:javax.swing.JPanel]] {
}
JPanel <|- - BarChartObserver
interface Observer [[java:observer.pattern.Observer]] {
}
Observer <|.. BarChartObserver
class CourseController [[java:observer.pattern.CourseController]] {
	-Vector<JSlider> sliders
	-JPanel coursePanel
	+CourseController(CourseData courses)
	+void addCourse(CourseRecord record)
	+void update(Observable o)
	+void actionPerformed(ActionEvent arg0)
	+void stateChanged(ChangeEvent arg0)
	+{static}void main(String[] args)
}
class CourseData [[java:observer.pattern.CourseData]] {
}
CourseController - -> "1" CourseData : courseData
class JPanel [[java:javax.swing.JPanel]] {
}
JPanel <|- - CourseController
interface Observer [[java:observer.pattern.Observer]] {
}
Observer <|.. CourseController
interface ChangeListener [[java:javax.swing.event.ChangeListener]] {
}
ChangeListener <|.. CourseController
interface ActionListener [[java:java.awt.event.ActionListener]] {
}
ActionListener <|.. CourseController
class CourseData [[java:observer.pattern.CourseData]] {
	-Vector<CourseRecord> courseData
	+CourseData()
	+void addCourseRecord(CourseRecord courseRecord)
	+void changeCourseRecord(String subjectName, int numOfStudents)
	+Vector<CourseRecord> getUpdate()
}
class Observable [[java:observer.pattern.Observable]] {
}
Observable <|- - CourseData
abstract class Observable [[java:observer.pattern.Observable]] {
	#Vector<Observer> observers
	+Observable()
	+void attach(Observer o)
	+void detach(Observer o)
	+void notifyObservers()
	+{abstract}Object getUpdate()
}

@enduml

PlantUML version 1.2019.11(Sun Sep 22 12:02:15 CEST 2019)
(EPL source distribution)
Java Runtime: Java(TM) SE Runtime Environment
JVM: Java HotSpot(TM) 64-Bit Server VM
Java Version: 15+36-1562
Operating System: Mac OS X
Default Encoding: UTF-8
Language: fr
Country: FR
--></g></svg>