<?xml version="1.0" encoding="UTF-8" standalone="no"?><svg xmlns="http://www.w3.org/2000/svg" xmlns:xlink="http://www.w3.org/1999/xlink" contentScriptType="application/ecmascript" contentStyleType="text/css" height="317px" preserveAspectRatio="none" style="width:391px;height:317px;" version="1.1" viewBox="0 0 391 317" width="391px" zoomAndPan="magnify"><defs><filter height="300%" id="f1unf3og7gx8rp" width="300%" x="-1" y="-1"><feGaussianBlur result="blurOut" stdDeviation="2.0"/><feColorMatrix in="blurOut" result="blurOut2" type="matrix" values="0 0 0 0 0 0 0 0 0 0 0 0 0 0 0 0 0 0 .4 0"/><feOffset dx="4.0" dy="4.0" in="blurOut2" result="blurOut3"/><feBlend in="SourceGraphic" in2="blurOut3" mode="normal"/></filter></defs><g><!--MD5=[5ae3828665f2b951e063345412aaa9c8]
class CourseViewer--><a href="java:observer.nonpattern.CourseViewer" target="_top" title="java:observer.nonpattern.CourseViewer" xlink:actuate="onRequest" xlink:href="java:observer.nonpattern.CourseViewer" xlink:show="new" xlink:title="java:observer.nonpattern.CourseViewer" xlink:type="simple"><rect fill="#FEFECE" filter="url(#f1unf3og7gx8rp)" height="190.5059" id="CourseViewer" style="stroke: #A80036; stroke-width: 1.5;" width="274" x="32" y="116"/><ellipse cx="125.25" cy="132" fill="#ADD1B2" rx="11" ry="11" style="stroke: #A80036; stroke-width: 1.0;"/><path d="M127.7231,138.1431 Q127.1421,138.4419 126.5029,138.5913 Q125.8638,138.7407 125.1582,138.7407 Q122.6514,138.7407 121.3315,137.0889 Q120.0117,135.437 120.0117,132.3159 Q120.0117,129.1865 121.3315,127.5347 Q122.6514,125.8828 125.1582,125.8828 Q125.8638,125.8828 126.5112,126.0322 Q127.1587,126.1816 127.7231,126.4805 L127.7231,129.2031 Q127.0923,128.6221 126.4988,128.3523 Q125.9053,128.0825 125.2744,128.0825 Q123.9297,128.0825 123.2449,129.1492 Q122.5601,130.2158 122.5601,132.3159 Q122.5601,134.4077 123.2449,135.4744 Q123.9297,136.541 125.2744,136.541 Q125.9053,136.541 126.4988,136.2712 Q127.0923,136.0015 127.7231,135.4204 Z "/><text fill="#000000" font-family="sans-serif" font-size="12" lengthAdjust="spacingAndGlyphs" textLength="79" x="145.75" y="136.5352">CourseViewer</text><line style="stroke: #A80036; stroke-width: 1.5;" x1="33" x2="305" y1="148" y2="148"/><rect fill="none" height="6" style="stroke: #C82930; stroke-width: 1.0;" width="6" x="40" y="156"/><text fill="#000000" font-family="sans-serif" font-size="11" lengthAdjust="spacingAndGlyphs" textLength="92" x="52" y="162.6348">JPanel sliderPanel</text><rect fill="none" height="6" style="stroke: #C82930; stroke-width: 1.0;" width="6" x="40" y="168.9551"/><text fill="#000000" font-family="sans-serif" font-size="11" lengthAdjust="spacingAndGlyphs" textLength="99" x="52" y="175.5898">JPanel coursePanel</text><rect fill="none" height="6" style="stroke: #C82930; stroke-width: 1.0;" width="6" x="40" y="181.9102"/><text fill="#000000" font-family="sans-serif" font-size="11" lengthAdjust="spacingAndGlyphs" textLength="125" x="52" y="188.5449">Vector&lt;JSlider&gt; sliders</text><rect fill="none" height="6" style="stroke: #C82930; stroke-width: 1.0;" width="6" x="40" y="194.8652"/><text fill="#000000" font-family="sans-serif" font-size="11" lengthAdjust="spacingAndGlyphs" textLength="116" x="52" y="201.5">JScrollPane scrollPane</text><rect fill="none" height="6" style="stroke: #C82930; stroke-width: 1.0;" width="6" x="40" y="207.8203"/><text fill="#000000" font-family="sans-serif" font-size="11" lengthAdjust="spacingAndGlyphs" textLength="77" x="52" y="214.4551">JButton button</text><line style="stroke: #A80036; stroke-width: 1.5;" x1="33" x2="305" y1="220.7754" y2="220.7754"/><ellipse cx="43" cy="231.7754" fill="#84BE84" rx="3" ry="3" style="stroke: #038048; stroke-width: 1.0;"/><text fill="#000000" font-family="sans-serif" font-size="11" lengthAdjust="spacingAndGlyphs" textLength="82" x="52" y="235.4102">CourseViewer()</text><ellipse cx="43" cy="244.7305" fill="#84BE84" rx="3" ry="3" style="stroke: #038048; stroke-width: 1.0;"/><text fill="#000000" font-family="sans-serif" font-size="11" lengthAdjust="spacingAndGlyphs" textLength="248" x="52" y="248.3652">void addCourse(CourseRecord courseRecord)</text><ellipse cx="43" cy="257.6855" fill="#84BE84" rx="3" ry="3" style="stroke: #038048; stroke-width: 1.0;"/><text fill="#000000" font-family="sans-serif" font-size="11" lengthAdjust="spacingAndGlyphs" textLength="119" x="52" y="261.3203">void paint(Graphics g)</text><ellipse cx="43" cy="270.6406" fill="#84BE84" rx="3" ry="3" style="stroke: #038048; stroke-width: 1.0;"/><text fill="#000000" font-family="sans-serif" font-size="11" lengthAdjust="spacingAndGlyphs" textLength="215" x="52" y="274.2754">void actionPerformed(ActionEvent arg0)</text><ellipse cx="43" cy="283.5957" fill="#84BE84" rx="3" ry="3" style="stroke: #038048; stroke-width: 1.0;"/><text fill="#000000" font-family="sans-serif" font-size="11" lengthAdjust="spacingAndGlyphs" textLength="206" x="52" y="287.2305">void stateChanged(ChangeEvent arg0)</text><ellipse cx="43" cy="296.5508" fill="#84BE84" rx="3" ry="3" style="stroke: #038048; stroke-width: 1.0;"/><text fill="#000000" font-family="sans-serif" font-size="11" lengthAdjust="spacingAndGlyphs" text-decoration="underline" textLength="127" x="52" y="300.1855">void main(String[] args)</text></a><!--MD5=[a520837ef4416b7ac44f8bb1541877a6]
class JFrame--><a href="java:javax.swing.JFrame" target="_top" title="java:javax.swing.JFrame" xlink:actuate="onRequest" xlink:href="java:javax.swing.JFrame" xlink:show="new" xlink:title="java:javax.swing.JFrame" xlink:type="simple"><rect fill="#FEFECE" filter="url(#f1unf3og7gx8rp)" height="48" id="JFrame" style="stroke: #A80036; stroke-width: 1.5;" width="72" x="6" y="8"/><ellipse cx="21" cy="24" fill="#ADD1B2" rx="11" ry="11" style="stroke: #A80036; stroke-width: 1.0;"/><path d="M23.4731,30.1431 Q22.8921,30.4419 22.2529,30.5913 Q21.6138,30.7407 20.9082,30.7407 Q18.4014,30.7407 17.0815,29.0889 Q15.7617,27.437 15.7617,24.3159 Q15.7617,21.1865 17.0815,19.5347 Q18.4014,17.8828 20.9082,17.8828 Q21.6138,17.8828 22.2612,18.0322 Q22.9087,18.1816 23.4731,18.4805 L23.4731,21.2031 Q22.8423,20.6221 22.2488,20.3523 Q21.6553,20.0825 21.0244,20.0825 Q19.6797,20.0825 18.9949,21.1492 Q18.3101,22.2158 18.3101,24.3159 Q18.3101,26.4077 18.9949,27.4744 Q19.6797,28.541 21.0244,28.541 Q21.6553,28.541 22.2488,28.2712 Q22.8423,28.0015 23.4731,27.4204 Z "/><text fill="#000000" font-family="sans-serif" font-size="12" lengthAdjust="spacingAndGlyphs" textLength="40" x="35" y="28.5352">JFrame</text><line style="stroke: #A80036; stroke-width: 1.5;" x1="7" x2="77" y1="40" y2="40"/><line style="stroke: #A80036; stroke-width: 1.5;" x1="7" x2="77" y1="48" y2="48"/></a><!--MD5=[04935357b5c5a2aec56a7c93da5b843d]
class ActionListener--><a href="java:java.awt.event.ActionListener" target="_top" title="java:java.awt.event.ActionListener" xlink:actuate="onRequest" xlink:href="java:java.awt.event.ActionListener" xlink:show="new" xlink:title="java:java.awt.event.ActionListener" xlink:type="simple"><rect fill="#FEFECE" filter="url(#f1unf3og7gx8rp)" height="48" id="ActionListener" style="stroke: #A80036; stroke-width: 1.5;" width="112" x="113" y="8"/><ellipse cx="128" cy="24" fill="#B4A7E5" rx="11" ry="11" style="stroke: #A80036; stroke-width: 1.0;"/><path d="M124.4277,20.2651 L124.4277,18.1069 L131.8071,18.1069 L131.8071,20.2651 L129.3418,20.2651 L129.3418,28.3418 L131.8071,28.3418 L131.8071,30.5 L124.4277,30.5 L124.4277,28.3418 L126.8931,28.3418 L126.8931,20.2651 Z "/><text fill="#000000" font-family="sans-serif" font-size="12" font-style="italic" lengthAdjust="spacingAndGlyphs" textLength="80" x="142" y="28.5352">ActionListener</text><line style="stroke: #A80036; stroke-width: 1.5;" x1="114" x2="224" y1="40" y2="40"/><line style="stroke: #A80036; stroke-width: 1.5;" x1="114" x2="224" y1="48" y2="48"/></a><!--MD5=[a94ef3b8c8e4fd23532822afff4ed5f3]
class ChangeListener--><a href="java:javax.swing.event.ChangeListener" target="_top" title="java:javax.swing.event.ChangeListener" xlink:actuate="onRequest" xlink:href="java:javax.swing.event.ChangeListener" xlink:show="new" xlink:title="java:javax.swing.event.ChangeListener" xlink:type="simple"><rect fill="#FEFECE" filter="url(#f1unf3og7gx8rp)" height="48" id="ChangeListener" style="stroke: #A80036; stroke-width: 1.5;" width="120" x="260" y="8"/><ellipse cx="275" cy="24" fill="#B4A7E5" rx="11" ry="11" style="stroke: #A80036; stroke-width: 1.0;"/><path d="M271.4277,20.2651 L271.4277,18.1069 L278.8071,18.1069 L278.8071,20.2651 L276.3418,20.2651 L276.3418,28.3418 L278.8071,28.3418 L278.8071,30.5 L271.4277,30.5 L271.4277,28.3418 L273.8931,28.3418 L273.8931,20.2651 Z "/><text fill="#000000" font-family="sans-serif" font-size="12" font-style="italic" lengthAdjust="spacingAndGlyphs" textLength="88" x="289" y="28.5352">ChangeListener</text><line style="stroke: #A80036; stroke-width: 1.5;" x1="261" x2="379" y1="40" y2="40"/><line style="stroke: #A80036; stroke-width: 1.5;" x1="261" x2="379" y1="48" y2="48"/></a><!--MD5=[8f2ae1c291a8184091281bd49d375ee5]
reverse link JFrame to CourseViewer--><path d="M70.54,72.89 C79.75,85.76 90.38,100.62 101.18,115.72 " fill="none" id="JFrame&lt;-CourseViewer" style="stroke: #A80036; stroke-width: 1.0;"/><polygon fill="none" points="64.55,76.54,58.6,56.21,75.93,68.4,64.55,76.54" style="stroke: #A80036; stroke-width: 1.0;"/><!--MD5=[1eeac3ea896167bd833d1a2441993a47]
reverse link ActionListener to CourseViewer--><path d="M169,76.49 C169,88.5 169,102.01 169,115.72 " fill="none" id="ActionListener&lt;-CourseViewer" style="stroke: #A80036; stroke-width: 1.0; stroke-dasharray: 7.0,7.0;"/><polygon fill="none" points="162,76.21,169,56.21,176,76.2,162,76.21" style="stroke: #A80036; stroke-width: 1.0;"/><!--MD5=[63999a131ab366aca9121a6510800030]
reverse link ChangeListener to CourseViewer--><path d="M287.19,71.57 C275.99,84.74 262.92,100.1 249.63,115.72 " fill="none" id="ChangeListener&lt;-CourseViewer" style="stroke: #A80036; stroke-width: 1.0; stroke-dasharray: 7.0,7.0;"/><polygon fill="none" points="281.97,66.9,300.26,56.21,292.63,75.97,281.97,66.9" style="stroke: #A80036; stroke-width: 1.0;"/><!--MD5=[b5269fd5dafe2fc0c05b7f8c93927a73]
@startuml
class CourseViewer [[java:observer.nonpattern.CourseViewer]] {
	-JPanel sliderPanel
	-JPanel coursePanel
	-Vector<JSlider> sliders
	-JScrollPane scrollPane
	-JButton button
	+CourseViewer()
	+void addCourse(CourseRecord courseRecord)
	+void paint(Graphics g)
	+void actionPerformed(ActionEvent arg0)
	+void stateChanged(ChangeEvent arg0)
	+{static}void main(String[] args)
}
class JFrame [[java:javax.swing.JFrame]] {
}
JFrame <|- - CourseViewer
interface ActionListener [[java:java.awt.event.ActionListener]] {
}
ActionListener <|.. CourseViewer
interface ChangeListener [[java:javax.swing.event.ChangeListener]] {
}
ChangeListener <|.. CourseViewer

@enduml

PlantUML version 1.2019.11(Sun Sep 22 12:02:15 CEST 2019)
(EPL source distribution)
Java Runtime: Java(TM) SE Runtime Environment
JVM: Java HotSpot(TM) 64-Bit Server VM
Java Version: 15+36-1562
Operating System: Mac OS X
Default Encoding: UTF-8
Language: fr
Country: FR
--></g></svg>